<svg height="32px" viewBox="-59 1 511 511.999" width="50px" xmlns="http://www.w3.org/2000/svg"><path d="m393.492188 0h-392.992188v469.722656h192.160156v42.277344l68.878906-35.410156 68.878907 35.410156v-42.277344h63.074219zm-30.023438 439.695312h-33.050781v-88.105468c0-.433594-.027344-.859375-.0625-1.285156-.816407-37.261719-31.359375-67.332032-68.816407-67.332032-37.457031 0-68 30.070313-68.8125 67.332032-.039062.425781-.066406.851562-.066406 1.285156v88.105468h-162.136718v-409.671874h332.945312zm-101.929688 3.136719-38.855468 19.976563v-54.175782c11.066406 7.59375 24.449218 12.050782 38.855468 12.050782s27.789063-4.457032 38.855469-12.050782v54.175782zm38.828126-91.003906c0 21.410156-17.417969 38.828125-38.828126 38.828125-21.410156 0-38.828124-17.417969-38.828124-38.828125s17.417968-38.828125 38.828124-38.828125c21.410157 0 38.828126 17.417969 38.828126 38.828125zm0 0"/><path d="m79.566406 81.066406h234.859375v30.027344h-234.859375zm0 0"/><path d="m207.671875 166.472656h106.753906v30.023438h-106.753906zm0 0"/><path d="m102.507812 358.628906h42.703126v30.027344h-42.703126zm0 0"/><path d="m207.671875 219.847656h106.753906v30.027344h-106.753906zm0 0"/><path d="m122.464844 262.976562c-12.640625 0-27.082032-4.105468-37.914063-10.507812l-12.476562 28.234375c9.847656 6.070313 25.769531 10.503906 42.183593 11.488281v17.398438h23.144532v-18.21875c25.441406-4.433594 38.242187-19.859375 38.242187-37.589844 0-42.34375-63.519531-30.855469-63.519531-44.644531 0-3.9375 3.609375-7.21875 14.933594-7.21875 10.015625 0 20.683594 2.789062 32.007812 8.535156l11.65625-28.070313c-9.359375-5.25-21.175781-8.371093-33.320312-9.519531v-17.5625h-23.144532v17.890625c-26.917968 3.777344-40.378906 19.367188-40.378906 37.917969 0 42.839844 63.523438 31.183594 63.523438 45.628906 0 3.9375-3.941406 6.238281-14.9375 6.238281zm0 0"/></svg>