<svg enable-background="new 0 0 100 100" height="32px" viewBox="0 0 100 100" width="32px" xmlns="http://www.w3.org/2000/svg"><path d="m86.5439529 16.1306915v40.622345h-72.925683l-6.0437846-30.9757347 1.9268203-8.7529717 9.0573206-.8936386z" fill="#474c5b"/><path d="m14.2033854 26.4198399-8.1915245-5.1446133-.108604 64.0199738c0 3.9980392 3.2410054 7.2391205 7.2390399 7.2391205h76.4132309c2.5081329 0 4.541214-2.033165 4.541214-4.541214l-.230751-61.5732727h-79.6626053z" fill="#4d5c7d"/><path d="m91.9284058 28.3851891h-78.8564225c-3.92062 0-7.109323-3.1893425-7.109323-7.1099625s3.1887031-7.1099644 7.109323-7.1099644h71.5065384c1.085083 0 1.9654312.8797083 1.9654312 1.9654293s-.8803482 1.9654274-1.9654312 1.9654274h-71.5065384c-1.7530184 0-3.1784658 1.4260883-3.1784658 3.1791077 0 1.7530174 1.4254475 3.1791058 3.1784658 3.1791058h78.8564224c1.085083 0 1.9654312.8797073 1.9654312 1.9654274s-.8803481 1.9654293-1.9654311 1.9654293z" fill="#64798a"/><path d="m68.9696121 52.0887718c-4.4153366 0-7.9946251 3.5792923-7.9946251 7.9945488 0 4.4153366 3.5792885 7.9946289 7.9946251 7.9946289h24.9242249v-15.9891777z" fill="#64798a"/><circle cx="68.329" cy="60.083" fill="#474c5b" r="3.457"/><ellipse cx="37.653" cy="77.827" fill="#fcd462" rx="17.173" ry="17.173" transform="matrix(.987 -.16 .16 .987 -11.98 7.036)"/><g fill="#f7be56"><ellipse cx="37.653" cy="77.827" rx="12.244" ry="12.244" transform="matrix(.987 -.16 .16 .987 -11.98 7.036)"/><path d="m37.104313 62.020668h1.097086v2.230367h-1.097086z"/><path d="m37.104313 91.402481h1.097086v2.230367h-1.097086z"/><path d="m51.795219 76.711571h1.097086v2.230367h-1.097086z" transform="matrix(0 1 -1 0 130.171 25.483)"/><path d="m22.41341 76.711571h1.097086v2.230367h-1.097086z" transform="matrix(0 1 -1 0 100.789 54.865)"/><path d="m47.492352 66.323532h1.097086v2.230367h-1.097086z" transform="matrix(.707 .707 -.707 .707 61.757 -14.218)"/><path d="m26.716276 87.099609h1.097086v2.230367h-1.097086z" transform="matrix(.707 .707 -.707 .707 70.363 6.558)"/><path d="m47.492352 87.099609h1.097086v2.230367h-1.097086z" transform="matrix(-.707 .707 -.707 -.707 144.388 116.622)"/><path d="m26.716276 66.323532h1.097086v2.230367h-1.097086z" transform="matrix(-.707 .707 -.707 -.707 94.23 95.846)"/><path d="m31.482348 63.138947h1.097086v2.230367h-1.097086z" transform="matrix(.924 -.383 .383 .924 -22.151 17.149)"/><path d="m42.72628 90.284203h1.097086v2.230367h-1.097086z" transform="matrix(.924 -.383 .383 .924 -31.683 23.518)"/><path d="m50.676941 71.089607h1.097086v2.230367h-1.097086z" transform="matrix(.383 .924 -.924 .383 98.331 -2.753)"/><path d="m23.531689 82.333542h1.097086v2.230367h-1.097086z" transform="matrix(.383 .924 -.924 .383 91.962 29.267)"/><path d="m42.72628 63.138947h1.097086v2.230367h-1.097086z" transform="matrix(.924 .383 -.383 .924 27.883 -11.67)"/><path d="m31.482348 90.284203h1.097086v2.230367h-1.097086z" transform="matrix(.924 .383 -.383 .924 37.415 -5.3)"/><path d="m50.676941 82.333542h1.097086v2.230367h-1.097086z" transform="matrix(-.383 .924 -.924 -.383 147.925 68.057)"/><path d="m23.531689 71.089607h1.097086v2.230367h-1.097086z" transform="matrix(-.383 .924 -.924 -.383 100.004 77.589)"/></g><path d="m43.9702873 78.4065094c-.4480743-.5891037-1.0888748-1.005806-1.9224014-1.2502289.645504-.3196487 1.1280785-.7395477 1.4476662-1.2597046.3196449-.5201569.4794388-1.0747604.4794388-1.6639252 0-.6329575-.1801796-1.2393112-.5404854-1.8190079-.360363-.579689-.8586235-1.0089417-1.4947166-1.2878723-.481823-.2111969-1.084343-.3417206-1.8052444-.392952v-1.716423h-1.8093071v1.69104h-.9149666v-1.69104h-1.8092499v1.69104h-.7662659v-.0042343h-2.0233536v1.6216888h1.4246063v10.5375443h-1.4246063v1.6216354h1.4246063v.0046463h1.3650131v1.6939697h1.8092499v-1.6939697h.9149666v1.6939697h1.8093071v-1.7091904c.6020584-.0291595 1.128952-.1007156 1.5796394-.2150879.6047287-.1535797 1.1076927-.3807526 1.5087738-.6815796s.7379189-.728569 1.0105743-1.283165c.2725945-.5546036.4089203-1.154686.4089203-1.8001938 0-.8021619-.2240333-1.4978559-.6721649-2.0869596zm-7.9105644-6.0727921h2.7543602c.9901886 0 1.6889572.0642471 2.0963707.1927338.4072952.128479.7206688.3666306.9399986.714447.2193871.3478165.3290558.7504654.3290558 1.2080078 0 .4825211-.1175079.8836594-.3525238 1.2032471-.2350121.3195877-.5844002.5483856-1.0482101.6862793-.350956.1065292-.9305916.15979-1.7390862.15979h-2.9799652zm6.4206085 9.3207093c-.1817474.3352737-.4136276.5906754-.6956902.7661514-.2820053.1754761-.6329575.300827-1.052803.3759842-.2382088.0439148-.6518364.0658722-1.2408829.0658722h-1.1657181-.9149666-1.3505478v-4.7379303h3.1868095c.8773842 0 1.5494919.0767899 2.0164413.2303085.4668922.1535263.8319016.4199066 1.0951462.7990265.2631874.3791885.3948097.8257446.3948097 1.3396301.0000002.4386673-.0908468.8256913-.2725981 1.1609574z" fill="#edb151"/><path d="m43.4447594 78.4065094c-.4480705-.5891037-1.088871-1.005806-1.9224014-1.2502289.6455078-.3196487 1.1280823-.7395477 1.44767-1.2597046.3196449-.5201569.4794388-1.0747604.4794388-1.6639252 0-.6329575-.1801834-1.2393112-.5404892-1.8190079-.360363-.579689-.8586197-1.0089417-1.4947166-1.2878723-.4818192-.2111969-1.084343-.3417206-1.8052444-.392952v-1.716423h-1.8093071v1.69104h-.9149628v-1.69104h-1.8092537v1.69104h-.766266v-.0042343h-2.0233536v1.6216888h1.4246101v10.5375443h-1.4246101v1.6216354h1.4246101v.0046463h1.3650093v1.6939697h1.8092537v-1.6939697h.9149628v1.6939697h1.8093071v-1.7091904c.6020584-.0291595 1.128952-.1007156 1.5796394-.2150879.6047287-.1535797 1.1076927-.3807526 1.5087738-.6815796s.7379189-.728569 1.0105743-1.283165c.2725945-.5546036.4089241-1.154686.4089241-1.8001938.0000001-.8021619-.2240371-1.4978559-.6721686-2.0869596zm-7.9105645-6.0727921h2.754364c.9901848 0 1.6889534.0642471 2.0963669.1927338.4072952.128479.7206688.3666306.9399986.714447.2193909.3478165.3290558.7504654.3290558 1.2080078 0 .4825211-.1175079.8836594-.35252 1.2032471-.2350159.3195877-.5844002.5483856-1.048214.6862793-.3509521.1065292-.9305916.15979-1.7390823.15979h-2.979969zm6.4206124 9.3207093c-.1817513.3352737-.4136276.5906754-.695694.7661514-.2820053.1754761-.6329575.300827-1.0527992.3759842-.2382088.0439148-.6518364.0658722-1.2408829.0658722h-1.1657219-.9149628-1.3505516v-4.7379303h3.1868095c.8773842 0 1.5494919.0767899 2.0164413.2303085.4668922.1535263.8319054.4199066 1.0951462.7990265.2631874.3791885.3948097.8257446.3948097 1.3396301.0000001.4386673-.0908469.8256913-.2725943 1.1609574z" fill="#fcd462"/><path d="m81.2404251 24.4309998c.0974121-.7406349.1652298-1.4904671.1652298-2.2577324 0-9.4845362-7.688652-17.1732674-17.1733475-17.1732674-9.4843788 0-17.1731911 7.6887312-17.1731911 17.1732674 0 .7672653.0678177 1.5170975.1653862 2.2577324z" fill="#fcd462"/><g fill="#f7be56"><path d="m76.2600021 24.4309998c.1367493-.7326374.216568-1.4854279.216568-2.2577324 0-6.7623186-5.4817047-12.2442608-12.2442627-12.2442608-6.7622414 0-12.2441025 5.4819422-12.2441025 12.2442608 0 .7723045.0799713 1.525095.2167282 2.2577324z"/><path d="m63.683891 6.367179h1.097086v2.230367h-1.097086z"/><path d="m78.374794 21.058085h1.097086v2.230367h-1.097086z" transform="matrix(0 1 -1 0 101.097 -56.75)"/><path d="m48.992985 21.058085h1.097086v2.230367h-1.097086z" transform="matrix(0 1 -1 0 71.715 -27.368)"/><path d="m74.07193 10.670046h1.097086v2.230367h-1.097086z" transform="matrix(.707 .707 -.707 .707 30.189 -49.313)"/><path d="m53.295853 10.670046h1.097086v2.230367h-1.097086z" transform="matrix(-.707 .707 -.707 -.707 100.252 -17.955)"/><path d="m58.061924 7.485458h1.097086v2.230367h-1.097086z" transform="matrix(.924 -.383 .383 .924 1.17 23.084)"/><path d="m77.256516 15.436118h1.097086v2.230367h-1.097086z" transform="matrix(.383 .924 -.924 .383 63.322 -61.665)"/><path d="m69.305855 7.485458h1.097086v2.230367h-1.097086z" transform="matrix(.924 .383 -.383 .924 8.609 -26.077)"/><path d="m50.111263 15.436118h1.097086v2.230367h-1.097086z" transform="matrix(-.383 .924 -.924 -.383 85.338 -23.918)"/></g><path d="m60.8155174 24.4309998h1.8237152v-1.9599915h3.1867867c.8774643 0 1.5495682.0767746 2.0166092.2303238.4667282.1535492.8317261.4198608 1.0950012.799015.1885757.2715111.2853394.590044.3387604.9306526h1.9161682c-.0649414-.6302719-.2733459-1.1924057-.6426697-1.6780052-.4481659-.5890846-1.088913-1.0057449-1.9224014-1.2502251.6453857-.3196545 1.1281052-.7395153 1.4476852-1.2596626.3195724-.5201473.4793549-1.0747623.4793549-1.6639271 0-.6329918-.1802597-1.2393494-.5404587-1.8189983-.3603592-.5797272-.8585968-1.0089455-1.4947052-1.2878923-.4819183-.2112103-1.0842819-.3417273-1.8053207-.3929901v-1.7163906h-1.8093185v1.6910391h-.9148979v-1.6910391h-1.8093224v1.6910391h-.7661439v-.0042391h-2.0233307v1.6217031h1.4244881zm1.8237152-7.7507916h2.7544518c.9902267 0 1.6888733.0642986 2.0964203.1927357.4072266.1285172.7205658.3666782.9398499.7144833.2194443.347805.3291702.7504711.3291702 1.2080002 0 .4824791-.1175613.8836269-.3525238 1.2032013-.2351227.3196545-.5844421.5484581-1.0482941.6863327-.3509216.1065235-.9305725.1597862-1.7389374.1597862h-2.9801369z" fill="#edb151"/><path d="m60.2900925 24.4309998h1.8237152v-1.9599915h3.1867828c.8773117 0 1.549408.0767746 2.016449.2303238.4668884.1535492.8318863.4198608 1.0951614.799015.1885757.2715111.2851868.590044.3386078.9306526h1.9161606c-.0649338-.6302719-.2731857-1.1924057-.642662-1.6780052-.4480133-.5890846-1.0889206-1.0057449-1.9224014-1.2502251.645546-.3196545 1.1281052-.7395153 1.4476776-1.2596626s.4795227-1.0747623.4795227-1.6639271c0-.6329918-.1802597-1.2393494-.5406265-1.8189983-.360199-.5797272-.8585892-1.0089455-1.4945374-1.2878923-.481926-.2112103-1.0844421-.3417273-1.8053284-.3929901v-1.7163906h-1.8093185v1.6910391h-.9150544v-1.6910391h-1.8091621v1.6910391h-.766304v-.0042391h-2.0233307v1.6217031h1.4246483zm1.8237152-7.7507916h2.7542877c.9902344 0 1.6888809.0642986 2.0964279.1927357.4072189.1285172.7207184.3666782.9400024.7144833.2192917.347805.32901.7504711.32901 1.2080002 0 .4824791-.1174011.8836269-.3525162 1.2032013-.2349625.3196545-.5844498.5484581-1.0482941.6863327-.3509293.1065235-.9305725.1597862-1.738945.1597862h-2.9799728v-4.1645394z" fill="#fcd462"/></svg>