<svg height="32px" viewBox="-41 0 512 512.001" width="32px" xmlns="http://www.w3.org/2000/svg"><g fill-rule="evenodd"><path d="m215.5 10.085938c-49.589844 52.195312-133.085938 59.644531-201.820312 61.347656-12.292969 282.90625-3.570313 324.84375 201.820312 430.480468 205.417969-105.636718 214.113281-147.574218 201.824219-430.480468-68.710938-1.703125-152.203125-9.152344-201.824219-61.347656zm0 425.324218c-149.710938-77.019531-156.363281-109.179687-147.386719-315.636718 50.046875-1.246094 110.824219-5.242188 147.105469-43.070313l.28125-.28125c36.28125 37.828125 97.058594 41.792969 147.105469 43.042969 8.949219 206.484375 2.914062 238.644531-146.792969 315.664062zm0 0" fill="#ffc15a"/><path d="m215.21875 76.703125c-36.28125 37.828125-97.058594 41.824219-147.105469 43.070313-8.976562 206.457031-2.320312 238.621093 147.386719 315.636718l.3125-.28125c149.710938-77.019531 155.742188-109.179687 146.792969-315.664062-50.046875-1.25-110.824219-5.214844-147.105469-43.042969zm-30.25 134.824219 30.53125-43.328125 30.558594 43.328125 50.613281 15.667968-31.75 42.449219.765625 53.015625-50.1875-17.085937-50.15625 17.085937.734375-53.015625-31.75-42.449219zm0 0" fill="#e8e7e9"/><path d="m215.5 168.199219-30.53125 43.328125-50.640625 15.667968 31.75 42.449219-.734375 53.015625 50.15625-17.085937 50.1875 17.085937-.765625-53.015625 31.75-42.449219-50.613281-15.667968zm0 0" fill="#ff6977"/></g><path d="m427.394531 70.996094c-.226562-5.300782-4.523437-9.515625-9.824219-9.644532-70.601562-1.746093-148.953124-10.03125-194.761718-58.214843-1.902344-2.003907-4.546875-3.136719-7.308594-3.136719s-5.40625 1.136719-7.308594 3.136719c-45.78125 48.183593-124.144531 56.46875-194.761718 58.214843-5.300782.128907-9.597657 4.34375-9.828126 9.644532-3.296874 75.914062-4.769531 128.511718-2.527343 172.707031 2.476562 48.90625 9.46875 83.929687 22.671875 113.554687 28.046875 62.925782 85.027344 101.105469 187.140625 153.625 1.449219.746094 3.03125 1.117188 4.613281 1.117188s3.164062-.371094 4.609375-1.113281c102.125-52.519531 159.109375-90.699219 187.152344-153.628907 13.203125-29.625 20.195312-64.648437 22.667969-113.554687 2.238281-44.183594.765624-96.785156-2.535157-172.707031zm-211.894531 419.574218c-195.425781-101.066406-203.554688-142.242187-192.152344-409.328124 68.730469-2.300782 143.121094-11.921876 192.15625-57.019532 49.050782 45.101563 123.429688 54.71875 192.148438 57.019532 11.402344 267.097656 3.273437 308.273437-192.152344 409.328124zm0 0"/><path d="m363.039062 266.851562c-5.519531-.757812-10.605468 3.105469-11.359374 8.621094-9.726563 71.105469-42.75 100.0625-136.296876 148.527344-139.339843-72.265625-145.726562-102.742188-137.597656-294.417969 48.746094-1.640625 101.519532-7.394531 137.734375-39.222656 36.1875 31.554687 88.800781 37.277344 137.410157 38.910156.960937 22.847657 1.558593 40.398438 1.917968 56.023438.125 5.566406 4.746094 9.992187 10.3125 9.851562 5.566406-.128906 9.976563-4.746093 9.847656-10.316406-.410156-17.835937-1.128906-38.128906-2.328124-65.800781-.230469-5.296875-4.523438-9.511719-9.824219-9.644532-50.441407-1.257812-107.027344-5.484374-140.078125-39.941406-1.875-1.957031-4.460938-3.078125-7.171875-3.105468-2.683594.011718-5.316407 1.035156-7.234375 2.953124l-.28125.285157c-.050782.046875-.101563.101562-.148438.148437-33.074218 34.488282-89.648437 38.714844-140.078125 39.972656-5.300781.132813-9.59375 4.34375-9.824219 9.644532-4.359374 100.238281-5.519531 164.453125 15.042969 210.878906 20.976563 47.367188 62.867188 75.609375 137.808594 114.160156 1.457031.753906 3.039063 1.117188 4.609375 1.117188 2.082031 0 4.148438-.644532 5.886719-1.894532 46.960937-24.199218 83.316406-45.644531 108.023437-71.398437 24.03125-25.050781 36.667969-53.160156 42.253906-93.992187.75-5.519532-3.109374-10.605469-8.625-11.359376zm0 0"/><path d="m306.261719 224.078125c-1.011719-3.113281-3.476563-5.546875-6.609375-6.515625l-47.332032-14.65625-28.578124-40.519531c-1.890626-2.675781-4.964844-4.269531-8.242188-4.269531-3.28125 0-6.355469 1.59375-8.242188 4.273437l-28.550781 40.515625-47.359375 14.65625c-3.128906.96875-5.59375 3.398438-6.605468 6.515625-1.015626 3.121094-.449219 6.535156 1.511718 9.160156l29.695313 39.699219-.691407 49.582031c-.042968 3.28125 1.507813 6.375 4.160157 8.300781 1.742187 1.269532 3.824219 1.925782 5.925781 1.925782 1.089844 0 2.191406-.179688 3.25-.539063l46.90625-15.980469 46.9375 15.980469c3.101562 1.058594 6.527344.539063 9.179688-1.390625 2.648437-1.925781 4.199218-5.023437 4.152343-8.300781l-.714843-49.582031 29.691406-39.695313c1.960937-2.625 2.527344-6.042969 1.515625-9.160156zm-49.414063 39.523437c-1.332031 1.785157-2.039062 3.960938-2.007812 6.1875l.558594 38.714844-36.648438-12.476562c-2.105469-.71875-4.394531-.71875-6.5 0l-36.625 12.476562.539062-38.71875c.03125-2.226562-.675781-4.398437-2.007812-6.183594l-23.1875-30.996093 36.984375-11.445313c2.125-.65625 3.976563-2.003906 5.261719-3.824218l22.292968-31.636719 22.316407 31.640625c1.28125 1.816406 3.128906 3.160156 5.257812 3.820312l36.957031 11.441406zm0 0"/><path d="m365.039062 219.945312c-5.566406 0-10.082031 4.515626-10.082031 10.085938v.195312c0 5.570313 4.515625 10.085938 10.082031 10.085938 5.570313 0 10.085938-4.515625 10.085938-10.085938v-.195312c0-5.570312-4.515625-10.085938-10.085938-10.085938zm0 0"/></svg>