<?xml version="1.0" encoding="iso-8859-1"?>
<!-- Generator: Adobe Illustrator 19.0.0, SVG Export Plug-In . SVG Version: 6.00 Build 0)  -->
<svg xmlns="http://www.w3.org/2000/svg" xmlns:xlink="http://www.w3.org/1999/xlink" version="1.1" id="Capa_1" x="0px" y="0px" viewBox="0 0 512 512" style="enable-background:new 0 0 512 512;" xml:space="preserve" width="32" height="32">
<g>
	<path d="M242.127,223.531c0-24.4-15.742-38.371-36.601-38.371s-36.601,13.971-36.601,38.371c0,24.598,15.742,38.372,36.601,38.372   S242.127,248.129,242.127,223.531z M196.868,223.531c0-13.184,4.329-17.119,8.658-17.119s8.658,3.936,8.658,17.119   c0,13.185-4.329,17.12-8.658,17.12S196.868,236.716,196.868,223.531z"/>
	<polygon points="286.402,187.128 192.342,324.872 225.598,324.872 319.658,187.128  "/>
	<path d="M306.473,326.84c20.858,0,36.601-13.774,36.601-38.372c0-24.4-15.742-38.371-36.601-38.371s-36.601,13.971-36.601,38.371   C269.873,313.065,285.615,326.84,306.473,326.84z M306.473,271.349c4.329,0,8.658,3.936,8.658,17.119   c0,13.185-4.329,17.12-8.658,17.12s-8.658-3.936-8.658-17.12C297.815,275.284,302.144,271.349,306.473,271.349z"/>
	<path d="M473.15,241c-3.55-52.493-25.68-101.358-63.236-138.914C372.358,64.531,323.493,42.4,271,38.851V0h-30v38.851   c-52.493,3.55-101.358,25.68-138.914,63.236C64.531,139.642,42.4,188.507,38.85,241H0v30h38.85   c3.55,52.493,25.68,101.358,63.236,138.914C139.642,447.469,188.507,469.6,241,473.149V512h30v-38.851   c52.493-3.55,101.358-25.68,138.914-63.236C447.47,372.358,469.6,323.493,473.15,271H512v-30H473.15z M241,405.333v37.733   C149.457,435.792,76.207,362.543,68.933,271h37.734v-30H68.933C76.207,149.457,149.457,76.208,241,68.934v37.733h30V68.934   C362.543,76.208,435.793,149.457,443.067,241h-37.734v30h37.734C435.793,362.543,362.543,435.792,271,443.066v-37.733H241z"/>
</g>















</svg>
