<?xml version="1.0" encoding="iso-8859-1"?>
<!-- Generator: Adobe Illustrator 19.0.0, SVG Export Plug-In . SVG Version: 6.00 Build 0)  -->
<svg version="1.1" id="Capa_1" xmlns="http://www.w3.org/2000/svg" xmlns:xlink="http://www.w3.org/1999/xlink" x="0px" y="0px"
	 viewBox="0 0 512 512" style="enable-background:new 0 0 512 512;" xml:space="preserve" width="32px" heigh="32px">
<polygon style="fill:#87CED9;" points="512,70.621 512,423.724 194.207,423.724 194.207,0 441.379,0 "/>
<polygon style="fill:#7DC6D1;" points="512,132.017 236.729,423.724 512,423.724 "/>
<g>
	<polygon style="fill:#4398D1;" points="441.379,0 441.379,70.621 512,70.621 	"/>
	<polygon style="fill:#4398D1;" points="308.966,485.517 308.966,264.828 344.276,264.828 344.276,485.517 326.621,512 	"/>
</g>
<path style="fill:#3685BA;" d="M388.414,397.241h-17.655v-88.276h-61.793V291.31h70.621c4.873,0,8.828,3.955,8.828,8.828V397.241z"
	/>
<g>
	<rect x="247.172" y="44.138" style="fill:#59B3C2;" width="167.724" height="17.655"/>
	<rect x="247.172" y="79.448" style="fill:#59B3C2;" width="167.724" height="17.655"/>
</g>
<g>
	<rect x="300.138" y="211.862" style="fill:#4398D1;" width="158.897" height="17.655"/>
	<rect x="300.138" y="176.552" style="fill:#4398D1;" width="17.655" height="44.138"/>
	<rect x="335.448" y="150.069" style="fill:#4398D1;" width="17.655" height="70.621"/>
	<rect x="370.759" y="176.552" style="fill:#4398D1;" width="17.655" height="44.138"/>
	<rect x="406.069" y="132.414" style="fill:#4398D1;" width="17.655" height="88.276"/>
	<rect x="441.379" y="114.759" style="fill:#4398D1;" width="17.655" height="105.931"/>
</g>
<g>
	<rect x="370.759" y="256" style="fill:#59B3C2;" width="88.276" height="17.655"/>
	<rect x="406.069" y="291.31" style="fill:#59B3C2;" width="52.966" height="17.655"/>
	<rect x="406.069" y="326.621" style="fill:#59B3C2;" width="52.966" height="17.655"/>
	<rect x="406.069" y="361.931" style="fill:#59B3C2;" width="52.966" height="17.655"/>
</g>
<rect y="123.586" style="fill:#E8594A;" width="273.655" height="388.414"/>
<polygon style="fill:#D65245;" points="0,373.213 0,512 273.655,512 273.655,123.586 243.279,123.586 "/>
<rect x="35.31" y="167.724" style="fill:#87CED9;" width="203.034" height="70.621"/>
<g>
	<rect x="35.31" y="432.552" style="fill:#FDB62F;" width="44.138" height="44.138"/>
	<rect x="114.759" y="432.552" style="fill:#FDB62F;" width="44.138" height="44.138"/>
	<rect x="35.31" y="353.103" style="fill:#FDB62F;" width="44.138" height="44.138"/>
	<rect x="114.759" y="353.103" style="fill:#FDB62F;" width="44.138" height="44.138"/>
	<rect x="35.31" y="273.655" style="fill:#FDB62F;" width="44.138" height="44.138"/>
	<rect x="114.759" y="273.655" style="fill:#FDB62F;" width="44.138" height="44.138"/>
	<rect x="194.207" y="273.655" style="fill:#FDB62F;" width="44.138" height="44.138"/>
	<rect x="194.207" y="353.103" style="fill:#FDB62F;" width="44.138" height="123.586"/>
</g>
<polygon style="fill:#7DC6D1;" points="61.793,238.345 238.345,238.345 238.345,167.724 132.414,167.724 "/>
<g>
	<rect x="194.207" y="194.207" style="fill:#266599;" width="17.655" height="17.655"/>
	<rect x="158.897" y="194.207" style="fill:#266599;" width="17.655" height="17.655"/>
	<rect x="123.586" y="194.207" style="fill:#266599;" width="17.655" height="17.655"/>
</g>
<g>
</g>
<g>
</g>
<g>
</g>
<g>
</g>
<g>
</g>
<g>
</g>
<g>
</g>
<g>
</g>
<g>
</g>
<g>
</g>
<g>
</g>
<g>
</g>
<g>
</g>
<g>
</g>
<g>
</g>
</svg>
