<?xml version="1.0"?>
<svg xmlns="http://www.w3.org/2000/svg" xmlns:xlink="http://www.w3.org/1999/xlink" version="1.1" id="Layer_1" x="0px" y="0px" viewBox="0 0 512.081 512.081" style="enable-background:new 0 0 512.081 512.081;" xml:space="preserve" width="32px" height="32px" class=""><g><g>
	<path d="M408.347,352.791h-56.113c-21.816,0-39.564,17.748-39.564,39.564c0,21.815,17.749,39.564,39.564,39.564h40.597v56.629   c0,4.705-3.828,8.532-8.532,8.532H111.75c-4.705,0-8.532-3.828-8.532-8.532V286.021c2.647,1.034,5.523,1.608,8.532,1.608h272.549   c4.705,0,8.532,3.828,8.532,8.532v32.066c0,4.142,3.358,7.5,7.5,7.5s7.5-3.358,7.5-7.5v-32.066c0-10.354-6.724-19.16-16.032-22.299   v-9.765c0-12.976-10.557-23.532-23.533-23.532h-8.019c-4.142,0-7.5,3.358-7.5,7.5s3.358,7.5,7.5,7.5h8.019   c4.705,0,8.533,3.828,8.533,8.532v8.532h-41.113v-80.677c0-8.556-6.96-15.517-15.516-15.517h-144.29   c-8.556,0-15.516,6.961-15.516,15.517v80.677H111.75c-4.705,0-8.532-3.828-8.532-8.532s3.828-8.532,8.532-8.532h24.046   c4.142,0,7.5-3.358,7.5-7.5s-3.358-7.5-7.5-7.5H111.75c-12.976,0-23.532,10.556-23.532,23.532v224.452   c0,12.976,10.557,23.532,23.532,23.532h272.549c12.976,0,23.532-10.557,23.532-23.532v-56.629h0.516   c8.556,0,15.516-6.961,15.516-15.517v-48.097C423.863,359.751,416.903,352.791,408.347,352.791z M207.428,272.629v-37.277   c4.961-2.804,9.048-6.891,11.853-11.852h57.488c2.804,4.961,6.892,9.048,11.853,11.852v37.277H207.428z M175.363,191.952   c0-0.285,0.231-0.517,0.516-0.517h144.29c0.285,0,0.516,0.231,0.516,0.517v80.677h-17.064V230.56c0-3.173-1.998-6.003-4.988-7.067   c-4.691-1.667-8.337-5.314-10.005-10.005c-1.063-2.99-3.893-4.988-7.067-4.988h-67.074c-3.174,0-6.004,1.998-7.067,4.988   c-1.667,4.69-5.314,8.337-10.005,10.005c-2.99,1.063-4.988,3.894-4.988,7.067v42.069h-17.064V191.952z M408.863,416.403   c0,0.285-0.231,0.517-0.516,0.517h-56.113c-13.545,0-24.564-11.02-24.564-24.564s11.02-24.564,24.564-24.564h56.113   c0.285,0,0.516,0.231,0.516,0.516V416.403z" data-original="#000000" class="active-path" data-old_color="#000000" fill="#F00101"/>
	<path d="M352.274,384.855h-0.08c-4.142,0-7.46,3.357-7.46,7.5c0,4.142,3.398,7.5,7.54,7.5s7.5-3.358,7.5-7.5   C359.774,388.212,356.416,384.855,352.274,384.855z" data-original="#000000" class="active-path" data-old_color="#000000" fill="#F00101"/>
	<path d="M256.04,240.565h-16.032c-4.142,0-7.5,3.358-7.5,7.5s3.358,7.5,7.5,7.5h16.032c4.142,0,7.5-3.358,7.5-7.5   S260.182,240.565,256.04,240.565z" data-original="#000000" class="active-path" data-old_color="#000000" fill="#F00101"/>
	<path d="M199.928,151.355c26.236,0,47.581-21.345,47.581-47.581c0-26.236-21.345-47.581-47.581-47.581   s-47.581,21.345-47.581,47.581C152.347,130.01,173.692,151.355,199.928,151.355z M199.928,71.193   c17.965,0,32.581,14.616,32.581,32.581c0,17.965-14.616,32.581-32.581,32.581s-32.581-14.616-32.581-32.581   C167.347,85.809,181.963,71.193,199.928,71.193z" data-original="#000000" class="active-path" data-old_color="#000000" fill="#F00101"/>
	<path d="M200.292,114.746c1.464,1.465,3.384,2.197,5.303,2.197s3.839-0.732,5.303-2.197c2.929-2.929,2.929-7.678,0-10.606   l-11.336-11.336c-2.929-2.929-7.678-2.929-10.606,0c-2.929,2.929-2.929,7.677,0,10.606L200.292,114.746z" data-original="#000000" class="active-path" data-old_color="#000000" fill="#F00101"/>
	<path d="M289.64,84.288c2.346,0,4.771-0.217,7.254-0.655c10.602-1.871,21.203-7.664,29.851-16.313   c18.866-18.866,22.601-44.688,8.502-58.787c-14.099-14.098-39.921-10.363-58.787,8.503v0c-8.648,8.648-14.442,19.25-16.313,29.851   c-2.043,11.58,0.73,21.856,7.81,28.936C273.52,81.384,281.053,84.288,289.64,84.288z M274.921,49.494   c1.322-7.488,5.749-15.453,12.147-21.851l0,0c8.102-8.102,18.188-12.585,26.426-12.585c4.46,0,8.38,1.315,11.148,4.083   c7.879,7.879,3.985,25.086-8.502,37.574c-6.398,6.398-14.363,10.825-21.851,12.146c-3.833,0.678-10.975,1.103-15.723-3.645   C273.818,60.469,274.244,53.328,274.921,49.494z" data-original="#000000" class="active-path" data-old_color="#000000" fill="#F00101"/>
	<path d="M295.935,55.347c1.919,0,3.839-0.732,5.303-2.197l11.336-11.336c2.929-2.929,2.929-7.677,0-10.606   c-2.929-2.929-7.678-2.929-10.606,0l-11.336,11.336c-2.929,2.929-2.929,7.678,0,10.606   C292.096,54.615,294.016,55.347,295.935,55.347z" data-original="#000000" class="active-path" data-old_color="#000000" fill="#F00101"/>
</g></g> </svg>
